<svg xmlns="http://www.w3.org/2000/svg" viewBox="0 0 1000 658" role="img" aria-labelledby="prg-t prg-d" font-family="Inter, 'Helvetica Neue', Helvetica, Arial, sans-serif">
<title id="prg-t">One pull request, from branch to live site</title>
<desc id="prg-d">A timeline in seven numbered steps, left to right, with one horizontal lane per participant: you and Claude Code, GitHub Actions, Vercel, the reviewer, and the repository. Steps 1 to 3, you and Claude Code: create a branch, make commits, push the branch to GitHub and open a pull request. Step 4: GitHub Actions runs the automated checks, which pass or fail, and Vercel builds a preview URL. Step 5: the reviewer, a teammate or you, reads the diff and approves. Steps 4 and 5 fall inside a shaded window, the time the pull request is open. Step 6: you merge. Step 7: Vercel deploys main to the live site. In the repository lane, a branch named feature-rating leaves main at step 1, collects two commits, passes through a box labeled pull request, and merges back into main at step 6. A bracket under main from step 1 to step 6 reads: main and the live site unchanged.</desc>
<defs>
<linearGradient id="prg-panel" x1="0" y1="0" x2="0" y2="1"><stop offset="0%" stop-color="#F6F8FA"/><stop offset="100%" stop-color="#EDF0F3"/></linearGradient>
<linearGradient id="prg-navy" x1="0" y1="0" x2="0" y2="1"><stop offset="0%" stop-color="#0E3F6A"/><stop offset="100%" stop-color="#001A36"/></linearGradient>
<linearGradient id="prg-gate" x1="0" y1="0" x2="0" y2="1"><stop offset="0%" stop-color="#EEF4FB"/><stop offset="100%" stop-color="#DCE8F6"/></linearGradient>
<filter id="prg-sh" x="-30%" y="-30%" width="160%" height="170%"><feDropShadow dx="0" dy="2" stdDeviation="3" flood-color="#002E5D" flood-opacity="0.13"/></filter>
<marker id="prg-ah" viewBox="0 0 10 10" refX="8" refY="5" markerWidth="6" markerHeight="6" orient="auto-start-reverse"><path d="M0,0.5 L10,5 L0,9.5 z" fill="#5A6672"/></marker>
</defs>
<rect x="0" y="0" width="1000" height="658" rx="8" fill="#FAFBFC"/>
<rect x="16" y="64" width="968" height="98" rx="10" fill="url(#prg-panel)"/>
<circle cx="52" cy="113.0" r="19" fill="#FFFFFF" stroke="#C9D7E8" stroke-width="1.5"/>
<g transform="translate(41,102) scale(0.9167)" fill="none" stroke="#002E5D" stroke-width="2.4" stroke-linecap="round" stroke-linejoin="round"><path d="M20 16V7a2 2 0 0 0-2-2H6a2 2 0 0 0-2 2v9m16 0H4m16 0 1.28 2.55a1 1 0 0 1-.9 1.45H3.62a1 1 0 0 1-.9-1.45L4 16" /></g>
<text x="82" y="119.0" font-size="19" font-weight="700" fill="#002E5D">You + Claude Code</text>
<rect x="16" y="170" width="968" height="80" rx="10" fill="url(#prg-panel)"/>
<circle cx="52" cy="210.0" r="19" fill="#FFFFFF" stroke="#C9D7E8" stroke-width="1.5"/>
<g transform="translate(41,199) scale(0.9167)" fill="none" stroke="#002E5D" stroke-width="2.4" stroke-linecap="round" stroke-linejoin="round"><rect width="8" height="8" x="3" y="3" rx="2" />
  <path d="M7 11v4a2 2 0 0 0 2 2h4" />
  <rect width="8" height="8" x="13" y="13" rx="2" /></g>
<text x="82" y="207.0" font-size="19" font-weight="700" fill="#002E5D">GitHub Actions</text>
<text x="82" y="228.0" font-size="16" fill="#5A6672">automated checks</text>
<rect x="16" y="258" width="968" height="80" rx="10" fill="url(#prg-panel)"/>
<circle cx="52" cy="298.0" r="19" fill="#FFFFFF" stroke="#C9D7E8" stroke-width="1.5"/>
<g transform="translate(41,287) scale(0.9167)" fill="none" stroke="#002E5D" stroke-width="2.4" stroke-linecap="round" stroke-linejoin="round"><path d="M17.5 19H9a7 7 0 1 1 6.71-9h1.79a4.5 4.5 0 1 1 0 9Z" /></g>
<text x="82" y="304.0" font-size="19" font-weight="700" fill="#002E5D">Vercel</text>
<rect x="16" y="346" width="968" height="98" rx="10" fill="url(#prg-panel)"/>
<circle cx="52" cy="395.0" r="19" fill="#FFFFFF" stroke="#C9D7E8" stroke-width="1.5"/>
<g transform="translate(41,384) scale(0.9167)" fill="none" stroke="#002E5D" stroke-width="2.4" stroke-linecap="round" stroke-linejoin="round"><path d="M16 21v-2a4 4 0 0 0-4-4H6a4 4 0 0 0-4 4v2" />
  <circle cx="9" cy="7" r="4" />
  <polyline points="16 11 18 13 22 9" /></g>
<text x="82" y="392.0" font-size="19" font-weight="700" fill="#002E5D">Reviewer</text>
<text x="82" y="413.0" font-size="16" fill="#5A6672">teammate, or you</text>
<rect x="16" y="452" width="968" height="190" rx="10" fill="url(#prg-panel)"/>
<circle cx="52" cy="492" r="19" fill="#FFFFFF" stroke="#C9D7E8" stroke-width="1.5"/>
<g transform="translate(41,481) scale(0.9167)" fill="none" stroke="#002E5D" stroke-width="2.4" stroke-linecap="round" stroke-linejoin="round"><line x1="6" x2="6" y1="3" y2="15" />
  <circle cx="18" cy="6" r="3" />
  <circle cx="6" cy="18" r="3" />
  <path d="M18 9a9 9 0 0 1-9 9" /></g>
<text x="82" y="489" font-size="19" font-weight="700" fill="#002E5D">Repository</text>
<text x="82" y="510" font-size="16" fill="#5A6672">laptop + GitHub</text>
<rect x="570" y="64" width="254" height="492" rx="10" fill="#0057B8" fill-opacity="0.05"/>
<line x1="322" y1="56" x2="322" y2="580" stroke="#DCE1E6" stroke-width="1.5" stroke-dasharray="3 5"/>
<circle cx="322" cy="34" r="14" fill="url(#prg-navy)"/>
<text x="322" y="39.5" font-size="15" font-weight="700" text-anchor="middle" fill="#FFFFFF">1</text>
<line x1="420" y1="56" x2="420" y2="580" stroke="#DCE1E6" stroke-width="1.5" stroke-dasharray="3 5"/>
<circle cx="420" cy="34" r="14" fill="url(#prg-navy)"/>
<text x="420" y="39.5" font-size="15" font-weight="700" text-anchor="middle" fill="#FFFFFF">2</text>
<line x1="520" y1="56" x2="520" y2="580" stroke="#DCE1E6" stroke-width="1.5" stroke-dasharray="3 5"/>
<circle cx="520" cy="34" r="14" fill="url(#prg-navy)"/>
<text x="520" y="39.5" font-size="15" font-weight="700" text-anchor="middle" fill="#FFFFFF">3</text>
<line x1="636" y1="56" x2="636" y2="580" stroke="#DCE1E6" stroke-width="1.5" stroke-dasharray="3 5"/>
<circle cx="636" cy="34" r="14" fill="url(#prg-navy)"/>
<text x="636" y="39.5" font-size="15" font-weight="700" text-anchor="middle" fill="#FFFFFF">4</text>
<line x1="748" y1="56" x2="748" y2="580" stroke="#DCE1E6" stroke-width="1.5" stroke-dasharray="3 5"/>
<circle cx="748" cy="34" r="14" fill="url(#prg-navy)"/>
<text x="748" y="39.5" font-size="15" font-weight="700" text-anchor="middle" fill="#FFFFFF">5</text>
<line x1="850" y1="56" x2="850" y2="580" stroke="#DCE1E6" stroke-width="1.5" stroke-dasharray="3 5"/>
<circle cx="850" cy="34" r="14" fill="url(#prg-navy)"/>
<text x="850" y="39.5" font-size="15" font-weight="700" text-anchor="middle" fill="#FFFFFF">6</text>
<line x1="940" y1="56" x2="940" y2="580" stroke="#DCE1E6" stroke-width="1.5" stroke-dasharray="3 5"/>
<circle cx="940" cy="34" r="14" fill="url(#prg-navy)"/>
<text x="940" y="39.5" font-size="15" font-weight="700" text-anchor="middle" fill="#FFFFFF">7</text>
<rect x="570" y="484" width="254" height="68" rx="12" fill="url(#prg-gate)" stroke="#0057B8" stroke-width="2"/>
<text x="697.0" y="506" font-size="18" font-weight="700" text-anchor="middle" fill="#0057B8">pull request</text>
<rect x="82" y="565" width="72" height="30" rx="15" fill="url(#prg-navy)"/>
<text x="118" y="585" font-size="15" font-weight="600" text-anchor="middle" font-family="Menlo, Consolas, monospace" fill="#FFFFFF">main</text>
<line x1="176" y1="580" x2="970" y2="580" stroke="#002E5D" stroke-width="5" stroke-linecap="round"/>
<path d="M322 580 C322 548 330 518 362 518 H810 C842 518 850 548 850 580" fill="none" stroke="#6495ED" stroke-width="4" stroke-linecap="round"/>
<rect x="291.0" y="468" width="140" height="30" rx="15" fill="#FFFFFF" stroke="#6495ED" stroke-width="1.5"/>
<text x="361.0" y="488" font-size="15" font-weight="600" text-anchor="middle" font-family="Menlo, Consolas, monospace" fill="#0057B8">feature-rating</text>
<circle cx="402" cy="518" r="7" fill="#FFFFFF" stroke="#6495ED" stroke-width="3"/>
<circle cx="438" cy="518" r="7" fill="#FFFFFF" stroke="#6495ED" stroke-width="3"/>
<circle cx="322" cy="580" r="7" fill="#FFFFFF" stroke="#002E5D" stroke-width="3"/>
<circle cx="850" cy="580" r="13" fill="#002E5D" stroke="#FFFFFF" stroke-width="3" filter="url(#prg-sh)"/>
<g transform="translate(842,572) scale(0.6667)" fill="none" stroke="#FFFFFF" stroke-width="3.3" stroke-linecap="round" stroke-linejoin="round"><circle cx="18" cy="18" r="3" />
  <circle cx="6" cy="6" r="3" />
  <path d="M6 21V9a9 9 0 0 0 9 9" /></g>
<path d="M322 600 V606 H850 V600" fill="none" stroke="#8A939C" stroke-width="1.5"/>
<text x="586.0" y="628" font-size="17" text-anchor="middle" fill="#5A6672">main and the live site unchanged</text>
<circle cx="322" cy="92" r="15" fill="#FFFFFF" stroke="#002E5D" stroke-width="2"/>
<g transform="translate(312,82) scale(0.8333)" fill="none" stroke="#002E5D" stroke-width="2.64" stroke-linecap="round" stroke-linejoin="round"><path d="M6 3v12" />
  <path d="M18 9a3 3 0 1 0 0-6 3 3 0 0 0 0 6z" />
  <path d="M6 21a3 3 0 1 0 0-6 3 3 0 0 0 0 6z" />
  <path d="M15 6a9 9 0 0 0-9 9" />
  <path d="M18 15v6" />
  <path d="M21 18h-6" /></g>
<text x="322" y="130" font-size="18" font-weight="600" text-anchor="middle" fill="#2C3E50">branch</text>
<circle cx="420" cy="92" r="15" fill="#FFFFFF" stroke="#002E5D" stroke-width="2"/>
<g transform="translate(410,82) scale(0.8333)" fill="none" stroke="#002E5D" stroke-width="2.64" stroke-linecap="round" stroke-linejoin="round"><circle cx="12" cy="12" r="3" />
  <line x1="3" x2="9" y1="12" y2="12" />
  <line x1="15" x2="21" y1="12" y2="12" /></g>
<text x="420" y="130" font-size="18" font-weight="600" text-anchor="middle" fill="#2C3E50">commits</text>
<circle cx="520" cy="92" r="15" fill="#FFFFFF" stroke="#002E5D" stroke-width="2"/>
<g transform="translate(510,82) scale(0.8333)" fill="none" stroke="#002E5D" stroke-width="2.64" stroke-linecap="round" stroke-linejoin="round"><circle cx="5" cy="6" r="3" />
  <path d="M5 9v12" />
  <circle cx="19" cy="18" r="3" />
  <path d="m15 9-3-3 3-3" />
  <path d="M12 6h5a2 2 0 0 1 2 2v7" /></g>
<text x="520" y="130" font-size="18" font-weight="600" text-anchor="middle" fill="#2C3E50">push,</text>
<text x="520" y="151" font-size="18" font-weight="600" text-anchor="middle" fill="#2C3E50">open PR</text>
<circle cx="850" cy="92" r="15" fill="#FFFFFF" stroke="#002E5D" stroke-width="2"/>
<g transform="translate(840,82) scale(0.8333)" fill="none" stroke="#002E5D" stroke-width="2.64" stroke-linecap="round" stroke-linejoin="round"><circle cx="18" cy="18" r="3" />
  <circle cx="6" cy="6" r="3" />
  <path d="M6 21V9a9 9 0 0 0 9 9" /></g>
<text x="850" y="130" font-size="18" font-weight="600" text-anchor="middle" fill="#2C3E50">merge,</text>
<text x="850" y="151" font-size="18" font-weight="600" text-anchor="middle" fill="#2C3E50">after approval</text>
<circle cx="636" cy="198" r="15" fill="#FFFFFF" stroke="#2C7A4C" stroke-width="2"/>
<g transform="translate(626,188) scale(0.8333)" fill="none" stroke="#2C7A4C" stroke-width="2.64" stroke-linecap="round" stroke-linejoin="round"><circle cx="12" cy="12" r="10" />
  <path d="m9 12 2 2 4-4" /></g>
<text x="636" y="236" font-size="18" font-weight="600" text-anchor="middle" fill="#2C3E50">pass or fail</text>
<circle cx="636" cy="286" r="15" fill="#FFFFFF" stroke="#002E5D" stroke-width="2"/>
<g transform="translate(626,276) scale(0.8333)" fill="none" stroke="#002E5D" stroke-width="2.64" stroke-linecap="round" stroke-linejoin="round"><path d="M2.062 12.348a1 1 0 0 1 0-.696 10.75 10.75 0 0 1 19.876 0 1 1 0 0 1 0 .696 10.75 10.75 0 0 1-19.876 0" />
  <circle cx="12" cy="12" r="3" /></g>
<text x="636" y="324" font-size="18" font-weight="600" text-anchor="middle" fill="#2C3E50">preview URL</text>
<circle cx="940" cy="286" r="15" fill="#FFFFFF" stroke="#002E5D" stroke-width="2"/>
<g transform="translate(930,276) scale(0.8333)" fill="none" stroke="#002E5D" stroke-width="2.64" stroke-linecap="round" stroke-linejoin="round"><circle cx="12" cy="12" r="10" />
  <path d="M12 2a14.5 14.5 0 0 0 0 20 14.5 14.5 0 0 0 0-20" />
  <path d="M2 12h20" /></g>
<text x="940" y="324" font-size="18" font-weight="600" text-anchor="middle" fill="#2C3E50">live site</text>
<circle cx="748" cy="374" r="15" fill="#FFFFFF" stroke="#002E5D" stroke-width="2"/>
<g transform="translate(738,364) scale(0.8333)" fill="none" stroke="#002E5D" stroke-width="2.64" stroke-linecap="round" stroke-linejoin="round"><path d="M16 21v-2a4 4 0 0 0-4-4H6a4 4 0 0 0-4 4v2" />
  <circle cx="9" cy="7" r="4" />
  <polyline points="16 11 18 13 22 9" /></g>
<text x="748" y="412" font-size="18" font-weight="600" text-anchor="middle" fill="#2C3E50">reads diff,</text>
<text x="748" y="433" font-size="18" font-weight="600" text-anchor="middle" fill="#2C3E50">approves</text>
<path d="M940 572 V350.0" fill="none" stroke="#5A6672" stroke-width="2" marker-end="url(#prg-ah)"/>
<text x="930" y="401.0" font-size="17" text-anchor="end" fill="#5A6672">deploys</text>
</svg>